External Loads File
version=1
nRows=54
nColumns=13
Range=5.000000e-03-10 seconds
endheader
time 	forceRightX 	forceRightY 	forceRightZ 	pointRightX 	pointRightY 	pointRightZ 	forceLeftX 	forceLeftY 	forceLeftZ 	pointLeftX 	pointLeftY 	pointLeftZ 		
7.505000 16.367818 104.108630 -0.000000 0.261152 0.466023 -0.126031 86.297948 526.625210 -0.000000 0.378113 0.162559 -0.364708
7.510000 14.665456 114.117466 -0.000000 0.270648 0.471014 -0.126307 98.062484 502.751377 -0.000000 0.369336 0.158103 -0.364573
7.515000 12.132752 123.197853 -0.000000 0.280285 0.475847 -0.126399 107.792355 478.697165 -0.000000 0.360169 0.154229 -0.364522
7.520000 8.847876 131.331997 -0.000000 0.290407 0.479732 -0.126583 115.993108 455.810782 -0.000000 0.350630 0.150984 -0.364455
7.525000 4.681659 138.666969 -0.000000 0.300237 0.482967 -0.126751 122.363519 435.550120 -0.000000 0.340759 0.148243 -0.364430
7.530000 0.141191 145.424056 -0.000000 0.310384 0.485701 -0.126874 128.516541 418.594726 -0.000000 0.330497 0.146240 -0.364220
7.535000 -4.710920 151.884179 -0.000000 0.320455 0.487544 -0.127053 134.331285 405.631977 -0.000000 0.320146 0.145021 -0.364254
7.540000 -9.017595 158.327710 -0.000000 0.330649 0.488883 -0.127171 141.670815 396.110998 -0.000000 0.308874 0.144030 -0.363637
7.545000 -13.710307 164.904637 -0.000000 0.340805 0.489526 -0.127414 147.699506 390.470275 -0.000000 0.299355 0.143760 -0.364778
7.550000 -17.533858 171.837996 -0.000000 0.350714 0.489382 -0.127303 154.952318 386.630040 -0.000000 0.289304 0.143965 -0.365256
7.555000 -20.295256 179.260658 -0.000000 0.360364 0.488653 -0.127566 163.018892 383.024239 -0.000000 0.278970 0.145298 -0.365466
7.560000 -22.134966 187.207067 -0.000000 0.369349 0.487233 -0.127595 170.715192 378.206923 -0.000000 0.268564 0.147361 -0.365447
7.565000 -22.792652 195.699882 -0.000000 0.378217 0.485151 -0.127734 177.723773 370.477054 -0.000000 0.258299 0.150274 -0.365218
7.570000 -22.491842 204.655124 -0.000000 0.386812 0.482485 -0.127833 182.832561 358.898372 -0.000000 0.248380 0.153935 -0.364977
7.575000 -21.566464 213.950918 -0.000000 0.394835 0.479149 -0.128031 184.895484 343.033330 -0.000000 0.238972 0.158293 -0.364873
7.580000 -20.042890 223.509359 -0.000000 0.402533 0.475153 -0.128122 183.547093 322.602729 -0.000000 0.230114 0.163415 -0.364656
7.585000 -18.327049 233.259024 -0.000000 0.409624 0.470511 -0.128271 178.093780 298.123863 -0.000000 0.221806 0.169115 -0.364321
7.590000 -16.236959 243.232899 -0.000000 0.416673 0.465079 -0.128024 168.922721 270.128747 -0.000000 0.214018 0.175394 -0.364268
7.595000 -14.524695 253.452055 -0.000000 0.423099 0.459263 -0.127744 155.591136 240.222128 -0.000000 0.206766 0.182120 -0.364379
7.600000 -13.264339 264.043266 -0.000000 0.429108 0.452653 -0.127538 138.843508 209.700047 -0.000000 0.200207 0.189140 -0.364331
7.605000 -12.538628 275.132894 -0.000000 0.434782 0.445462 -0.127842 119.586724 179.923686 -0.000000 0.194117 0.196460 -0.364143
7.610000 -12.402078 286.781684 -0.000000 0.439924 0.437964 -0.127658 98.870571 152.091498 -0.000000 0.188095 0.204265 -0.363055
7.615000 -12.882141 298.952625 -0.000000 0.444753 0.429224 -0.127408 77.809244 127.083754 -0.000000 0.183122 0.212360 -0.362978
7.620000 -14.250552 311.494287 -0.000000 0.449130 0.420214 -0.127266 57.379523 105.448730 -0.000000 0.178611 0.220836 -0.362846
7.625000 -16.413130 324.180110 -0.000000 0.453047 0.410854 -0.127159 38.574652 87.260788 -0.000000 0.174608 0.229667 -0.362797
7.630000 -18.988595 336.786430 -0.000000 0.456523 0.401085 -0.127005 22.202765 72.314278 -0.000000 0.171037 0.238928 -0.362708
7.635000 -21.836284 349.174243 -0.000000 0.459587 0.390959 -0.126897 8.737341 60.274302 -0.000000 0.167993 0.248517 -0.362668
7.640000 -24.774167 361.345630 -0.000000 0.461950 0.380489 -0.126647 -1.582535 50.705508 -0.000000 0.165375 0.258352 -0.362663
7.645000 -27.432791 373.435651 -0.000000 0.463910 0.369905 -0.126487 -8.735168 43.169303 -0.000000 0.163267 0.268513 -0.362648
7.650000 -29.481198 385.663468 -0.000000 0.465358 0.359055 -0.126371 -12.897589 37.285788 -0.000000 0.161801 0.278824 -0.362635
7.655000 -30.575965 398.295396 -0.000000 0.466260 0.348042 -0.126288 -14.353114 32.746784 -0.000000 0.161035 0.289336 -0.362644
7.660000 -30.393069 411.600336 -0.000000 0.466604 0.336852 -0.126039 -13.446962 29.297645 -0.000000 0.160573 0.299979 -0.362623
7.665000 -29.216914 425.777084 -0.000000 0.466375 0.325736 -0.125953 -10.601501 26.692383 -0.000000 0.160697 0.310703 -0.362643
7.670000 -26.420155 441.024097 -0.000000 0.465620 0.314426 -0.125719 -6.196420 24.733393 -0.000000 0.161406 0.321557 -0.362632
7.675000 -22.182660 457.327034 -0.000000 0.464154 0.303064 -0.125801 -0.689459 23.224550 -0.000000 0.162713 0.332365 -0.362654
7.680000 -16.384897 474.444183 -0.000000 0.462283 0.291873 -0.125551 5.457128 22.025873 -0.000000 0.164656 0.343268 -0.362659
7.685000 -8.003606 491.879868 -0.000000 0.459938 0.280133 -0.125389 11.828641 21.067720 -0.000000 0.167198 0.354055 -0.362691
7.690000 1.280320 508.891069 -0.000000 0.457104 0.269291 -0.125450 17.949396 20.452633 -0.000000 0.170319 0.365014 -0.362739
7.695000 10.877853 524.800596 -0.000000 0.453718 0.258732 -0.125530 23.479489 20.388892 -0.000000 0.173872 0.375212 -0.362862
7.700000 22.114458 538.971898 -0.000000 0.449920 0.248523 -0.125530 28.232645 21.019721 -0.000000 0.178116 0.385568 -0.362817
7.705000 34.629389 550.882875 -0.000000 0.445582 0.238520 -0.125599 32.068422 22.541762 -0.000000 0.183040 0.395748 -0.362801
7.710000 46.876010 560.264610 -0.000000 0.440827 0.228950 -0.125564 34.927004 25.191525 -0.000000 0.188381 0.405335 -0.362770
7.715000 59.761602 566.824438 -0.000000 0.435648 0.219547 -0.125497 36.945515 28.961287 -0.000000 0.194220 0.414769 -0.362850
7.720000 72.147595 570.515746 -0.000000 0.429916 0.210655 -0.125376 38.219043 33.848785 -0.000000 0.200583 0.423608 -0.362975
7.725000 83.922741 571.293334 -0.000000 0.423804 0.202274 -0.125391 38.888961 39.691382 -0.000000 0.207382 0.432068 -0.363020
7.730000 94.270676 569.296820 -0.000000 0.417501 0.194351 -0.124955 38.994695 46.307489 -0.000000 0.214311 0.440097 -0.362937
7.735000 105.500118 564.179963 -0.000000 0.410229 0.186997 -0.125335 38.765029 53.271429 -0.000000 0.222492 0.447587 -0.363635
7.740000 114.536862 556.529474 -0.000000 0.402925 0.180028 -0.125186 37.918946 60.509308 -0.000000 0.230528 0.454525 -0.363819
7.745000 122.371813 546.255763 -0.000000 0.395027 0.173657 -0.125574 36.469134 67.653264 -0.000000 0.238704 0.460936 -0.363760
7.750000 128.990991 533.432506 -0.000000 0.386887 0.167860 -0.125637 34.340724 74.422980 -0.000000 0.247275 0.466913 -0.363896
7.755000 134.324551 518.168236 -0.000000 0.378473 0.162601 -0.125639 31.468614 80.592868 -0.000000 0.256275 0.472122 -0.364171
7.760000 138.247807 500.647596 -0.000000 0.369805 0.157819 -0.125514 27.779654 85.992006 -0.000000 0.265456 0.476757 -0.364367
7.765000 140.537745 481.171470 -0.000000 0.361079 0.153905 -0.125103 23.166092 90.501614 -0.000000 0.274876 0.480863 -0.364542
7.770000 141.905640 459.888328 -0.000000 0.351925 0.150513 -0.124916 17.703531 94.017099 -0.000000 0.284481 0.484258 -0.364707
